<?xml version="1.0"?>
<svg xmlns="http://www.w3.org/2000/svg" height="512px" viewBox="0 0 480 480" width="512px" class=""><g><path d="m456 392c13.253906 0 24-10.746094 24-24v-104c0-13.253906-10.746094-24-24-24h-176c-13.253906 0-24 10.746094-24 24v104c0 13.253906 10.746094 24 24 24h64v24h-16v16h-72v-19.359375c-.078125-25.226563-16.941406-47.316406-41.257812-54.039063l-46.742188-12.722656v-12.09375c14.988281-10.4375 23.945312-27.523437 24-45.785156v-15.144531c2.039062-.933594 3.328125-1.597657 3.574219-1.695313 2.714843-1.355468 4.425781-4.128906 4.425781-7.160156v-48l42.871094-16.488281c3.097656-1.183594 5.144531-4.15625 5.144531-7.472657 0-3.316406-2.046875-6.285156-5.144531-7.472656l-104-40c-1.851563-.695312-3.890625-.695312-5.742188 0l-104 40c-3.078125 1.183594-5.113281 4.136719-5.128906 7.433594v36.6875l-21.65625 21.65625 11.3125 11.3125 10.34375-10.34375v12.6875h16v-12.6875l10.34375 10.34375 11.3125-11.3125-21.65625-21.65625v-25.039062l32 12.351562v48c-.015625 3.046875 1.699219 5.839844 4.425781 7.199219.246094.121093 1.535157.761719 3.574219 1.695312v15.105469c-.128906 18.3125 8.871094 35.484375 24 45.800781v12.078125l-46.769531 12.730469c-24.300781 6.726563-41.15625 28.8125-41.230469 54.03125v19.359375h-8c-4.417969 0-8 3.582031-8 8v32c0 4.417969 3.582031 8 8 8h464c4.417969 0 8-3.582031 8-8v-32c0-4.417969-3.582031-8-8-8h-64v-16h-16v-24zm-336-40v-10.398438c10.425781 3.207032 21.574219 3.207032 32 0v10.398438c.027344 2.292969 1.042969 4.460938 2.792969 5.945312l-18.792969 15.65625-18.792969-15.648437c1.75-1.484375 2.769531-3.65625 2.792969-5.953125zm16-191.433594 81.710938 31.433594-81.710938 31.433594-81.710938-31.433594zm-2.871094 78.90625c1.847656.703125 3.894532.703125 5.742188 0l45.128906-17.359375v36.796875c-15.066406 7.253906-31.335938 11.691406-48 13.089844-16.664062-1.410156-32.929688-5.847656-48-13.097656v-36.796875zm-37.128906 48.527344v-8.585938c12.769531 5.042969 26.285156 7.945313 40 8.585938 13.714844-.640625 27.230469-3.542969 40-8.585938v8.585938c-.015625 14.292969-7.660156 27.492188-20.050781 34.621094-12.386719 7.128906-27.636719 7.105468-40.003907-.0625-3.023437-1.714844-5.792968-3.84375-8.234374-6.320313-7.539063-7.453125-11.761719-17.632812-11.710938-28.238281zm-64 124.640625c.058594-18.015625 12.101562-33.792969 29.464844-38.601563l37.734375-10.261718 31.679687 26.398437c2.96875 2.472657 7.273438 2.472657 10.242188 0l31.679687-26.398437 37.710938 10.253906c17.371093 4.804688 29.421875 20.585938 29.488281 38.609375v19.359375h-24v-32h-16v32h-128v-32h-16v32h-24zm432 35.359375v16h-448v-16zm-184-72c-4.417969 0-8-3.582031-8-8v-104c0-4.417969 3.582031-8 8-8h176c4.417969 0 8 3.582031 8 8v104c0 4.417969-3.582031 8-8 8h-64v-56c0-4.417969-3.582031-8-8-8h-32c-4.417969 0-8 3.582031-8 8v56zm80 40v-88h16v88zm0 0" data-original="#000000" class="active-path" fill="#000000"/><path d="m288 184h112c4.417969 0 8-3.582031 8-8v-8h24c4.417969 0 8-3.582031 8-8v-152c0-4.417969-3.582031-8-8-8h-119.65625c-4.417969 0-8 3.582031-8 8v16h-16.34375c-4.417969 0-8 3.582031-8 8v144c0 4.417969 3.582031 8 8 8zm88-138.664062 8 10.664062h-8zm-55.65625-29.335938h103.65625v136h-16v-88c0-1.730469-.5625-3.414062-1.601562-4.800781l-24-32c-1.507813-2.011719-3.878907-3.199219-6.398438-3.199219h-55.65625zm-24.34375 24h64v24c0 4.417969 3.582031 8 8 8h24v96h-96zm0 0" data-original="#000000" class="active-path" fill="#000000"/><path d="m312 128h64v16h-64zm0 0" data-original="#000000" class="active-path" fill="#000000"/><path d="m312 88h64v16h-64zm0 0" data-original="#000000" class="active-path" fill="#000000"/><path d="m194.34375 58.34375 11.3125 11.3125 24-24c3.121094-3.125 3.121094-8.1875 0-11.3125l-24-24-11.3125 11.3125 10.34375 10.34375h-60.6875v16h60.6875zm0 0" data-original="#000000" class="active-path" fill="#000000"/><path d="m138.34375 114.34375 11.3125 11.3125 24-24c3.121094-3.125 3.121094-8.1875 0-11.3125l-24-24-11.3125 11.3125 10.34375 10.34375h-60.6875v16h60.6875zm0 0" data-original="#000000" class="active-path" fill="#000000"/><path d="m112 32h16v16h-16zm0 0" data-original="#000000" class="active-path" fill="#000000"/><path d="m56 88h16v16h-16zm0 0" data-original="#000000" class="active-path" fill="#000000"/><path d="m24 88h16v16h-16zm0 0" data-original="#000000" class="active-path" fill="#000000"/></g> </svg>
