<?xml version="1.0" encoding="UTF-8" standalone="no"?>
<svg
   xmlns:dc="http://purl.org/dc/elements/1.1/"
   xmlns:cc="http://creativecommons.org/ns#"
   xmlns:rdf="http://www.w3.org/1999/02/22-rdf-syntax-ns#"
   xmlns:svg="http://www.w3.org/2000/svg"
   xmlns="http://www.w3.org/2000/svg"
   xmlns:sodipodi="http://sodipodi.sourceforge.net/DTD/sodipodi-0.dtd"
   xmlns:inkscape="http://www.inkscape.org/namespaces/inkscape"
   height="512px"
   viewBox="0 0 512.001 512"
   width="512px"
   version="1.1"
   id="svg4507"
   sodipodi:docname="3.svg"
   inkscape:version="0.92.4 (5da689c313, 2019-01-14)">
  <metadata
     id="metadata4513">
    <rdf:RDF>
      <cc:Work
         rdf:about="">
        <dc:format>image/svg+xml</dc:format>
        <dc:type
           rdf:resource="http://purl.org/dc/dcmitype/StillImage" />
        <dc:title />
      </cc:Work>
    </rdf:RDF>
  </metadata>
  <defs
     id="defs4511" />
  <sodipodi:namedview
     pagecolor="#ffffff"
     bordercolor="#666666"
     borderopacity="1"
     objecttolerance="10"
     gridtolerance="10"
     guidetolerance="10"
     inkscape:pageopacity="0"
     inkscape:pageshadow="2"
     inkscape:window-width="1920"
     inkscape:window-height="1017"
     id="namedview4509"
     showgrid="false"
     inkscape:zoom="0.65186406"
     inkscape:cx="-213.98216"
     inkscape:cy="283.60164"
     inkscape:window-x="1358"
     inkscape:window-y="-8"
     inkscape:window-maximized="1"
     inkscape:current-layer="g4505" />
  <g
     id="g4505">
    <path
       d="m55.261719 28.761719c-12.125 0-21.988281 9.867187-21.988281 21.988281 0 12.125 9.863281 21.992188 21.988281 21.992188s21.992187-9.867188 21.992187-21.992188c0-12.121094-9.867187-21.988281-21.992187-21.988281zm0 28.992187c-3.859375 0-7.003907-3.140625-7.003907-7.003906 0-3.859375 3.144532-7 7.003907-7 3.863281 0 7.003906 3.140625 7.003906 7 0 3.863281-3.140625 7.003906-7.003906 7.003906zm0 0"
       data-original="#000000"
       fill="#000000"
       id="path4451"
       style="fill:#ec6f31;fill-opacity:1" />
    <path
       d="m111.25 28.761719c-12.125 0-21.992188 9.867187-21.992188 21.988281 0 12.125 9.867188 21.992188 21.992188 21.992188s21.988281-9.867188 21.988281-21.992188c0-12.121094-9.863281-21.988281-21.988281-21.988281zm0 28.992187c-3.863281 0-7.003906-3.140625-7.003906-7.003906 0-3.859375 3.140625-7 7.003906-7 3.859375 0 7.003906 3.140625 7.003906 7 0 3.863281-3.144531 7.003906-7.003906 7.003906zm0 0"
       data-original="#000000"
       fill="#000000"
       id="path4453"
       style="fill:#ec6f31;fill-opacity:1" />
    <path
       d="m167.234375 28.761719c-12.125 0-21.988281 9.867187-21.988281 21.988281 0 12.125 9.863281 21.992188 21.988281 21.992188s21.992187-9.867188 21.992187-21.992188c0-12.121094-9.867187-21.988281-21.992187-21.988281zm0 28.992187c-3.859375 0-7.003906-3.140625-7.003906-7.003906 0-3.859375 3.144531-7 7.003906-7 3.863281 0 7.003906 3.140625 7.003906 7 0 3.863281-3.140625 7.003906-7.003906 7.003906zm0 0"
       data-original="#000000"
       fill="#000000"
       id="path4455"
       style="fill:#ec6f31;fill-opacity:1" />
    <path
       d="m 503.9375,147.82422 c 4.14062,0 7.49609,-3.35547 7.49609,-7.4961 L 512,32.976562 C 512,14.792969 497.20703,0 479.02344,0 H 32.980469 C 14.796875,0 0,14.796875 0,32.980469 V 395.54687 c 0,16.48047 12.152344,30.17579 27.964844,32.59766 1.636718,0.25391 3.3125,0.38281 5.015625,0.38281 H 178.78516 v 26.875 h -22.625 c -15.08985,0 -27.3711,12.27735 -27.3711,27.36719 v 16.19141 c 0,6.88672 5.60156,12.48828 12.48828,12.48828 h 35.73438 c 4.13672,0 7.49219,-3.35547 7.49219,-7.4961 0,-4.13671 -3.35547,-7.49218 -7.49219,-7.49218 h -33.23438 v -13.69141 c 0,-6.82812 5.55469,-12.38281 12.38282,-12.38281 h 199.11328 c 6.82812,0 12.38281,5.55469 12.38281,12.38281 v 13.69141 h -144.125 c -4.13672,0 -7.49219,3.35547 -7.49219,7.49218 0,4.14063 3.35547,7.4961 7.49219,7.4961 h 146.62109 c 6.88672,0 12.48828,-5.60156 12.48828,-12.48828 v -16.19141 c 0,-15.08984 -12.27734,-27.36719 -27.37109,-27.36719 h -22.625 v -26.875 h 145.80859 c 1.70313,0 3.37891,-0.1289 5.01172,-0.38281 15.81641,-2.42187 27.96485,-16.11719 27.96485,-32.59766 V 186.78906 c 0,-4.14062 -3.35157,-7.49609 -7.49219,-7.49609 -4.13672,0 -7.49219,3.35547 -7.49219,7.49609 V 352.13672 L 15.539062,351.59766 V 101.92969 H 496.44531 v 38.39843 c 0,4.14063 3.35547,7.4961 7.49219,7.4961 z M 107.53924,101.92969 h 14.00003 l -3e-5,249.7675 H 107.53921 Z M 317.66016,455.40234 H 193.77344 v -26.875 H 317.66016 Z M 496.44531,367.125 v 28.42187 c 0,9.30079 -7.09375,16.97657 -16.15625,17.90235 -0.60547,0.0586 -1.21484,0.0898 -1.83594,0.0898 H 32.980469 c -0.621094,0 -1.234375,-0.0312 -1.835938,-0.0898 -9.0625,-0.92578 -16.15625,-8.60156 -16.15625,-17.90235 V 367.125 Z M 254.71875,86.941406 H 15.539062 V 32.976562 c 0,-9.917968 8.070313,-17.988281 17.992188,-17.988281 h 444.92187 c 9.92188,0 17.99219,8.070313 17.99219,17.992188 v 53.960937 z"
       data-original="#000000"
       id="path4457"
       inkscape:connector-curvature="0"
       style="fill:#ec6f31;fill-opacity:1"
       sodipodi:nodetypes="sccsssscsccssssssscsssscsssssssccscssssccccsscccccccccccscsscsccccsssscc" />
    <path
       d="m 168.90636,131.79297 h 37.96477 c 4.13671,0 7.49217,-3.35156 7.49217,-7.49219 0,-4.13672 -3.35546,-7.49219 -7.49217,-7.49219 h -37.96477 c -4.14062,0 -7.49608,3.35547 -7.49608,7.49219 0,4.14063 3.35546,7.49219 7.49608,7.49219 z m 0,0"
       data-original="#000000"
       id="path4459"
       inkscape:connector-curvature="0"
       style="fill:#ec6f31;fill-opacity:1" />
    <path
       d="m 232.84766,131.79297 h 17.98437 c 4.13672,0 7.49219,-3.35156 7.49219,-7.49219 0,-4.13672 -3.35547,-7.49219 -7.49219,-7.49219 h -17.98437 c -4.14063,0 -7.49219,3.35547 -7.49219,7.49219 0,4.14063 3.35156,7.49219 7.49219,7.49219 z m 0,0"
       data-original="#000000"
       id="path4461"
       inkscape:connector-curvature="0"
       style="fill:#ec6f31;fill-opacity:1" />
    <path
       d="m 225.85157,143.25781 h -24.97653 c -4.13671,0 -7.49217,3.35547 -7.49217,7.4961 0,4.13671 3.35546,7.49218 7.49217,7.49218 h 24.97653 c 4.14062,0 7.49609,-3.35547 7.49609,-7.49218 0,-4.14063 -3.35547,-7.4961 -7.49609,-7.4961 z m 0,0"
       data-original="#000000"
       id="path4463"
       inkscape:connector-curvature="0"
       style="fill:#ec6f31;fill-opacity:1" />
    <path
       d="m 343.7461,170.65625 h -24.97657 c -4.13671,0 -7.49218,3.35547 -7.49218,7.49219 0,4.13672 3.35547,7.49218 7.49218,7.49218 h 24.97657 c 4.14062,0 7.49218,-3.35546 7.49218,-7.49218 0,-4.13672 -3.35156,-7.49219 -7.49218,-7.49219 z m 0,0"
       data-original="#000000"
       id="path4465"
       inkscape:connector-curvature="0"
       style="fill:#ec6f31;fill-opacity:1" />
    <path
       d="m 241.33985,150.75391 c 0,4.13671 3.35547,7.49218 7.49218,7.49218 h 59.94532 c 4.14062,0 7.49609,-3.35547 7.49609,-7.49218 0,-4.14063 -3.35547,-7.4961 -7.49609,-7.4961 h -59.94532 c -4.13671,0 -7.49218,3.35547 -7.49218,7.4961 z m 0,0"
       data-original="#000000"
       id="path4467"
       inkscape:connector-curvature="0"
       style="fill:#ec6f31;fill-opacity:1" />
    <path
       d="m 217.35939,178.14844 c 0,4.13672 3.35546,7.49218 7.49608,7.49218 h 12.98828 c 4.13672,0 7.49219,-3.35546 7.49219,-7.49218 0,-4.13672 -3.35547,-7.49219 -7.49219,-7.49219 h -12.98828 c -4.14062,0 -7.49608,3.35547 -7.49608,7.49219 z m 0,0"
       data-original="#000000"
       id="path4469"
       inkscape:connector-curvature="0"
       style="fill:#ec6f31;fill-opacity:1" />
    <path
       d="m 295.78907,185.64062 c 4.14062,0 7.49609,-3.35546 7.49609,-7.49218 0,-4.13672 -3.35547,-7.49219 -7.49609,-7.49219 h -35.96485 c -4.14062,0 -7.49609,3.35547 -7.49609,7.49219 0,4.13672 3.35547,7.49218 7.49609,7.49218 z m 0,0"
       data-original="#000000"
       id="path4471"
       inkscape:connector-curvature="0"
       style="fill:#ec6f31;fill-opacity:1" />
    <path
       d="m 214.3633,275.26953 c 0,-4.14062 -3.35546,-7.49219 -7.49217,-7.49219 h -37.96477 c -4.14062,0 -7.49608,3.35157 -7.49608,7.49219 0,4.13672 3.35546,7.49219 7.49608,7.49219 h 37.96477 c 4.13671,0 7.49217,-3.35547 7.49217,-7.49219 z m 0,0"
       data-original="#000000"
       id="path4473"
       inkscape:connector-curvature="0"
       style="fill:#ec6f31;fill-opacity:1" />
    <path
       d="m 232.84766,267.77734 c -4.14063,0 -7.49219,3.35157 -7.49219,7.49219 0,4.13672 3.35156,7.49219 7.49219,7.49219 h 17.98437 c 4.13672,0 7.49219,-3.35547 7.49219,-7.49219 0,-4.14062 -3.35547,-7.49219 -7.49219,-7.49219 z m 0,0"
       data-original="#000000"
       id="path4475"
       inkscape:connector-curvature="0"
       style="fill:#ec6f31;fill-opacity:1" />
    <path
       d="m 233.34766,301.71875 c 0,-4.13672 -3.35547,-7.49219 -7.49609,-7.49219 h -24.97653 c -4.13671,0 -7.49217,3.35547 -7.49217,7.49219 0,4.14062 3.35546,7.49609 7.49217,7.49609 h 24.97653 c 4.14062,0 7.49609,-3.35547 7.49609,-7.49609 z m 0,0"
       data-original="#000000"
       id="path4477"
       inkscape:connector-curvature="0"
       style="fill:#ec6f31;fill-opacity:1" />
    <path
       d="m 237.84375,321.625 h -12.98828 c -4.14062,0 -7.49608,3.35156 -7.49608,7.49219 0,4.13672 3.35546,7.49218 7.49608,7.49218 h 12.98828 c 4.13672,0 7.49219,-3.35546 7.49219,-7.49218 0,-4.14063 -3.35547,-7.49219 -7.49219,-7.49219 z m 0,0"
       data-original="#000000"
       id="path4479"
       inkscape:connector-curvature="0"
       style="fill:#ec6f31;fill-opacity:1" />
    <path
       d="m 343.7461,321.625 h -24.97657 c -4.13671,0 -7.49218,3.35156 -7.49218,7.49219 0,4.13672 3.35547,7.49218 7.49218,7.49218 h 24.97657 c 4.14062,0 7.49218,-3.35546 7.49218,-7.49218 0,-4.14063 -3.35156,-7.49219 -7.49218,-7.49219 z m 0,0"
       data-original="#000000"
       id="path4481"
       inkscape:connector-curvature="0"
       style="fill:#ec6f31;fill-opacity:1" />
    <path
       d="m 316.27344,301.71875 c 0,-4.13672 -3.35547,-7.49219 -7.49609,-7.49219 h -59.94532 c -4.13671,0 -7.49218,3.35547 -7.49218,7.49219 0,4.14062 3.35547,7.49609 7.49218,7.49609 h 59.94532 c 4.14062,0 7.49609,-3.35547 7.49609,-7.49609 z m 0,0"
       data-original="#000000"
       id="path4483"
       inkscape:connector-curvature="0"
       style="fill:#ec6f31;fill-opacity:1" />
    <path
       d="m 295.78907,321.625 h -35.96485 c -4.14062,0 -7.49609,3.35156 -7.49609,7.49219 0,4.13672 3.35547,7.49218 7.49609,7.49218 h 35.96485 c 4.14062,0 7.49609,-3.35546 7.49609,-7.49218 0,-4.14063 -3.35547,-7.49219 -7.49609,-7.49219 z m 0,0"
       data-original="#000000"
       id="path4485"
       inkscape:connector-curvature="0"
       style="fill:#ec6f31;fill-opacity:1" />
    <path
       d="m 168.90636,219.97656 h 20.98043 c 4.1367,0 7.49217,-3.35547 7.49217,-7.49219 0,-4.14062 -3.35547,-7.49218 -7.49217,-7.49218 h -20.98043 c -4.14062,0 -7.49608,3.35156 -7.49608,7.49218 0,4.13672 3.35546,7.49219 7.49608,7.49219 z m 0,0"
       data-original="#000000"
       id="path4487"
       inkscape:connector-curvature="0"
       style="fill:#ec6f31;fill-opacity:1" />
    <path
       d="m 295.28907,212.48437 c 0,-4.14062 -3.35157,-7.49218 -7.49219,-7.49218 h -76.92967 c -4.13671,0 -7.49217,3.35156 -7.49217,7.49218 0,4.13672 3.35546,7.49219 7.49217,7.49219 h 76.92967 c 4.14062,0 7.49219,-3.35547 7.49219,-7.49219 z m 0,0"
       data-original="#000000"
       id="path4489"
       inkscape:connector-curvature="0"
       style="fill:#ec6f31;fill-opacity:1" />
    <path
       d="m 281.30469,238.93359 c 0,-4.13672 -3.35547,-7.49218 -7.49609,-7.49218 h -72.93356 c -4.13671,0 -7.49217,3.35546 -7.49217,7.49218 0,4.14063 3.35546,7.4961 7.49217,7.4961 h 72.93356 c 4.14062,0 7.49609,-3.35547 7.49609,-7.4961 z m 0,0"
       data-original="#000000"
       id="path4491"
       inkscape:connector-curvature="0"
       style="fill:#ec6f31;fill-opacity:1" />
    <path
       d="m 294.79297,246.42969 h 13.98438 c 4.14062,0 7.49609,-3.35547 7.49609,-7.4961 0,-4.13672 -3.35547,-7.49218 -7.49609,-7.49218 h -13.98438 c -4.14062,0 -7.49609,3.35546 -7.49609,7.49218 0,4.14063 3.35547,7.4961 7.49609,7.4961 z m 0,0"
       data-original="#000000"
       id="path4493"
       inkscape:connector-curvature="0"
       style="fill:#ec6f31;fill-opacity:1" />
    <path
       d="m 391.24366,248.49759 c 1.46095,1.46095 3.37893,2.19533 5.29691,2.19533 1.91798,0 3.83596,-0.73047 5.30081,-2.19533 2.9258,-2.9258 2.9258,-7.67192 0,-10.59771 l -18.19542,-18.19542 18.19542,-18.19152 c 2.9258,-2.9297 2.9258,-7.67192 0,-10.59772 -2.9258,-2.92579 -7.67192,-2.92579 -10.59772,0 l -23.49236,23.49233 c -1.40626,1.40626 -2.19533,3.31252 -2.19533,5.29691 0,1.98829 0.78907,3.89455 2.19533,5.30081 z m 0,0"
       data-original="#000000"
       id="path4307"
       inkscape:connector-curvature="0"
       style="fill:#ec6f31;stroke-width:1.00000584;fill-opacity:1" />
    <path
       d="m 465.60347,219.70446 -18.19542,18.19542 c -2.92579,2.92579 -2.92579,7.67191 0.004,10.59771 1.46094,1.46095 3.37892,2.19533 5.29691,2.19533 1.91798,0 3.83596,-0.73438 5.29691,-2.19533 l 23.49622,-23.49623 c 2.9258,-2.9258 2.9258,-7.67191 0,-10.59381 l -23.49622,-23.49623 c -2.9258,-2.92579 -7.66802,-2.92579 -10.59382,0 -2.9297,2.9297 -2.9297,7.67192 0,10.59771 z m 0,0"
       data-original="#000000"
       id="path4309"
       inkscape:connector-curvature="0"
       style="fill:#ec6f31;stroke-width:1.00000584;fill-opacity:1" />
    <path
       d="m 413.45473,250.17339 c 0.89844,0.35156 1.82814,0.51953 2.7383,0.51953 2.9922,0 5.81644,-1.8047 6.9766,-4.75394 l 18.45714,-46.98855 c 1.51564,-3.85158 -0.38281,-8.19927 -4.23439,-9.7149 -3.84769,-1.51173 -8.19928,0.38281 -9.711,4.2344 l -18.46105,46.98855 c -1.51173,3.85158 0.38282,8.20318 4.2344,9.71491 z m 0,0"
       data-original="#000000"
       id="path4311"
       inkscape:connector-curvature="0"
       style="fill:#ec6f31;stroke-width:1.00000584;fill-opacity:1" />
    <path
       d="m 35.515124,128.68024 h 26.771071 c 6.157815,0 11.152681,-3.35156 11.152681,-7.49219 0,-4.13672 -4.994866,-7.49219 -11.152681,-7.49219 H 35.515124 c -6.163636,0 -11.152682,3.35547 -11.152682,7.49219 0,4.14063 4.989046,7.49219 11.152682,7.49219 z m 0,0"
       data-original="#000000"
       id="path4461-4"
       inkscape:connector-curvature="0"
       style="fill:#ec6f31;stroke-width:1.22007143;fill-opacity:1" />
    <path
       d="m 24.362048,147.64118 c 0,4.13671 3.35547,7.49218 7.49218,7.49218 h 59.94537 c 4.140628,0 7.496106,-3.35547 7.496106,-7.49218 0,-4.14063 -3.355478,-7.4961 -7.496106,-7.4961 h -59.94537 c -4.13671,0 -7.49218,3.35547 -7.49218,7.4961 z m 0,0"
       data-original="#000000"
       id="path4467-2"
       inkscape:connector-curvature="0"
       style="fill:#ec6f31;stroke-width:1;fill-opacity:1" />
    <path
       d="m 24.362048,175.03571 c 0,4.13672 4.735409,7.49218 10.578878,7.49218 h 18.329772 c 5.837966,0 10.573389,-3.35546 10.573389,-7.49218 0,-4.13672 -4.735423,-7.49219 -10.573389,-7.49219 H 34.940926 c -5.843469,0 -10.578878,3.35547 -10.578878,7.49219 z m 0,0"
       data-original="#000000"
       id="path4469-6"
       inkscape:connector-curvature="0"
       style="fill:#ec6f31;stroke-width:1.18796241;fill-opacity:1" />
    <path
       d="m 36.973456,212.86383 h 35.297487 c 6.959586,0 12.60483,-3.35547 12.60483,-7.49219 0,-4.14062 -5.645244,-7.49218 -12.60483,-7.49218 H 36.973456 c -6.966181,0 -12.611408,3.35156 -12.611408,7.49218 0,4.13672 5.645227,7.49219 12.611408,7.49219 z m 0,0"
       data-original="#000000"
       id="path4487-0"
       inkscape:connector-curvature="0"
       style="fill:#ec6f31;stroke-width:1.29707372;fill-opacity:1" />
    <path
       d="m 100.01135,231.82086 c 0,-4.13672 -2.8871,-7.49218 -6.449754,-7.49218 H 30.808427 c -3.559289,0 -6.446379,3.35546 -6.446379,7.49218 0,4.14063 2.88709,7.4961 6.446379,7.4961 h 62.753169 c 3.562654,0 6.449754,-3.35547 6.449754,-7.4961 z m 0,0"
       data-original="#000000"
       id="path4491-7"
       inkscape:connector-curvature="0"
       style="fill:#ec6f31;stroke-width:0.92758584;fill-opacity:1" />
  </g>
</svg>
