<?xml version="1.0" encoding="UTF-8" standalone="no"?>
<svg
   xmlns:dc="http://purl.org/dc/elements/1.1/"
   xmlns:cc="http://creativecommons.org/ns#"
   xmlns:rdf="http://www.w3.org/1999/02/22-rdf-syntax-ns#"
   xmlns:svg="http://www.w3.org/2000/svg"
   xmlns="http://www.w3.org/2000/svg"
   xmlns:sodipodi="http://sodipodi.sourceforge.net/DTD/sodipodi-0.dtd"
   xmlns:inkscape="http://www.inkscape.org/namespaces/inkscape"
   height="512px"
   viewBox="0 0 512.001 512"
   width="512px"
   version="1.1"
   id="svg4507"
   sodipodi:docname="5.svg"
   inkscape:version="0.92.4 (5da689c313, 2019-01-14)">
  <metadata
     id="metadata4513">
    <rdf:RDF>
      <cc:Work
         rdf:about="">
        <dc:format>image/svg+xml</dc:format>
        <dc:type
           rdf:resource="http://purl.org/dc/dcmitype/StillImage" />
        <dc:title />
      </cc:Work>
    </rdf:RDF>
  </metadata>
  <defs
     id="defs4511">
    <linearGradient
       gradientTransform="matrix(0.41900036,0,0,0.41900036,147.58761,117.77157)"
       id="a"
       gradientUnits="userSpaceOnUse"
       x1="0"
       x2="512"
       y1="256"
       y2="256">
      <stop
         offset="0"
         stop-color="#00f2fe"
         id="stop4700" />
      <stop
         offset=".0208"
         stop-color="#03effe"
         id="stop4702" />
      <stop
         offset=".2931"
         stop-color="#24d2fe"
         id="stop4704" />
      <stop
         offset=".5538"
         stop-color="#3cbdfe"
         id="stop4706" />
      <stop
         offset=".7956"
         stop-color="#4ab0fe"
         id="stop4708" />
      <stop
         offset="1"
         stop-color="#4facfe"
         id="stop4710" />
    </linearGradient>
  </defs>
  <sodipodi:namedview
     pagecolor="#ffffff"
     bordercolor="#666666"
     borderopacity="1"
     objecttolerance="10"
     gridtolerance="10"
     guidetolerance="10"
     inkscape:pageopacity="0"
     inkscape:pageshadow="2"
     inkscape:window-width="1920"
     inkscape:window-height="1017"
     id="namedview4509"
     showgrid="false"
     inkscape:zoom="0.921875"
     inkscape:cx="-55.966176"
     inkscape:cy="114.6492"
     inkscape:window-x="1358"
     inkscape:window-y="-8"
     inkscape:window-maximized="1"
     inkscape:current-layer="g4505" />
  <g
     id="g4505">
    <path
       d="m55.261719 28.761719c-12.125 0-21.988281 9.867187-21.988281 21.988281 0 12.125 9.863281 21.992188 21.988281 21.992188s21.992187-9.867188 21.992187-21.992188c0-12.121094-9.867187-21.988281-21.992187-21.988281zm0 28.992187c-3.859375 0-7.003907-3.140625-7.003907-7.003906 0-3.859375 3.144532-7 7.003907-7 3.863281 0 7.003906 3.140625 7.003906 7 0 3.863281-3.140625 7.003906-7.003906 7.003906zm0 0"
       data-original="#000000"
       fill="#000000"
       id="path4451"
       style="fill:#ec6f31;fill-opacity:1" />
    <path
       d="m111.25 28.761719c-12.125 0-21.992188 9.867187-21.992188 21.988281 0 12.125 9.867188 21.992188 21.992188 21.992188s21.988281-9.867188 21.988281-21.992188c0-12.121094-9.863281-21.988281-21.988281-21.988281zm0 28.992187c-3.863281 0-7.003906-3.140625-7.003906-7.003906 0-3.859375 3.140625-7 7.003906-7 3.859375 0 7.003906 3.140625 7.003906 7 0 3.863281-3.144531 7.003906-7.003906 7.003906zm0 0"
       data-original="#000000"
       fill="#000000"
       id="path4453"
       style="fill:#ec6f31;fill-opacity:1" />
    <path
       d="m167.234375 28.761719c-12.125 0-21.988281 9.867187-21.988281 21.988281 0 12.125 9.863281 21.992188 21.988281 21.992188s21.992187-9.867188 21.992187-21.992188c0-12.121094-9.867187-21.988281-21.992187-21.988281zm0 28.992187c-3.859375 0-7.003906-3.140625-7.003906-7.003906 0-3.859375 3.144531-7 7.003906-7 3.863281 0 7.003906 3.140625 7.003906 7 0 3.863281-3.140625 7.003906-7.003906 7.003906zm0 0"
       data-original="#000000"
       fill="#000000"
       id="path4455"
       style="fill:#ec6f31;fill-opacity:1" />
    <path
       d="m 503.9375,147.82422 c 4.14062,0 7.49609,-3.35547 7.49609,-7.4961 L 512,32.976562 C 512,14.792969 497.20703,0 479.02344,0 H 32.980469 C 14.796875,0 0,14.796875 0,32.980469 V 395.54687 c 0,16.48047 12.152344,30.17579 27.964844,32.59766 1.636718,0.25391 3.3125,0.38281 5.015625,0.38281 H 178.78516 v 26.875 h -22.625 c -15.08985,0 -27.3711,12.27735 -27.3711,27.36719 v 16.19141 c 0,6.88672 5.60156,12.48828 12.48828,12.48828 h 35.73438 c 4.13672,0 7.49219,-3.35547 7.49219,-7.4961 0,-4.13671 -3.35547,-7.49218 -7.49219,-7.49218 h -33.23438 v -13.69141 c 0,-6.82812 5.55469,-12.38281 12.38282,-12.38281 h 199.11328 c 6.82812,0 12.38281,5.55469 12.38281,12.38281 v 13.69141 h -144.125 c -4.13672,0 -7.49219,3.35547 -7.49219,7.49218 0,4.14063 3.35547,7.4961 7.49219,7.4961 h 146.62109 c 6.88672,0 12.48828,-5.60156 12.48828,-12.48828 v -16.19141 c 0,-15.08984 -12.27734,-27.36719 -27.37109,-27.36719 h -22.625 v -26.875 h 145.80859 c 1.70313,0 3.37891,-0.1289 5.01172,-0.38281 15.81641,-2.42187 27.96485,-16.11719 27.96485,-32.59766 V 186.78906 c 0,-4.14062 -3.35157,-7.49609 -7.49219,-7.49609 -4.13672,0 -7.49219,3.35547 -7.49219,7.49609 V 352.13672 L 15.539062,351.59766 V 101.92969 H 496.44531 v 38.39843 c 0,4.14063 3.35547,7.4961 7.49219,7.4961 z M 15.539062,101.92969 v 0 249.66797 0 z M 317.66016,455.40234 H 193.77344 v -26.875 H 317.66016 Z M 496.44531,367.125 v 28.42187 c 0,9.30079 -7.09375,16.97657 -16.15625,17.90235 -0.60547,0.0586 -1.21484,0.0898 -1.83594,0.0898 H 32.980469 c -0.621094,0 -1.234375,-0.0312 -1.835938,-0.0898 -9.0625,-0.92578 -16.15625,-8.60156 -16.15625,-17.90235 V 367.125 Z M 254.71875,86.941406 H 15.539062 V 32.976562 c 0,-9.917968 8.070313,-17.988281 17.992188,-17.988281 h 444.92187 c 9.92188,0 17.99219,8.070313 17.99219,17.992188 v 53.960937 z"
       data-original="#000000"
       id="path4457"
       inkscape:connector-curvature="0"
       style="fill:#ec6f31;fill-opacity:1"
       sodipodi:nodetypes="sccsssscsccssssssscsssscsssssssccscssssccccsscccccccccccscsscsccccsssscc" />
    <path
       inkscape:connector-curvature="0"
       style="fill:#ec6f31;stroke-width:0.41900033;fill-opacity:1"
       d="m 321.72643,238.27509 -2.47799,-2.47801 c -0.24387,-0.24386 -0.30116,-0.64158 -0.15877,-0.98366 l 0.0639,-0.15712 c 0.13748,-0.33226 0.52047,-0.40264 0.81672,-0.40264 h 3.50421 c 12.29668,0 22.30032,-10.09201 22.30032,-22.49835 v -6.95934 c 0,-5.97729 -2.34379,-11.56178 -6.59763,-15.72233 -4.19,-4.09998 -9.76631,-6.35702 -15.70269,-6.35702 h -3.50585 c -0.13748,0 -0.59413,-0.28806 -0.82982,-0.85764 l -0.0393,-0.0933 c -0.15386,-0.3699 -0.0949,-0.76763 0.14893,-1.01149 l 2.478,-2.478 c 4.21128,-4.21128 6.53214,-9.81214 6.53214,-15.76816 0,-5.95602 -2.32086,-11.55688 -6.53214,-15.76816 l -4.92164,-4.91998 c -4.21128,-4.21292 -9.8105,-6.53215 -15.76816,-6.53215 -5.95602,0 -11.55524,2.31923 -15.76652,6.53215 l -2.47963,2.47799 c -0.24388,0.24387 -0.63996,0.30279 -0.99841,0.15385 l -0.14239,-0.0589 c -0.33225,-0.13748 -0.40264,-0.52047 -0.40264,-0.81672 v -3.50586 c 0.002,-12.29503 -10.09038,-22.29867 -22.49671,-22.29867 h -6.95934 c -12.40633,0 -22.49835,10.00364 -22.49835,22.29867 v 3.50586 c 0,0.29625 -0.0703,0.67924 -0.39445,0.81182 l -0.13748,0.0573 c -0.3699,0.15386 -0.76762,0.0966 -1.0115,-0.14731 l -2.47799,-2.47963 c -4.21128,-4.21128 -9.81214,-6.53051 -15.76817,-6.53051 -5.95601,0 -11.55687,2.31923 -15.76815,6.53051 l -4.91998,4.92162 c -4.21292,4.21128 -6.53215,9.81214 -6.53215,15.76816 0,5.95603 2.31923,11.55688 6.53052,15.76816 l 2.47962,2.478 c 0.24387,0.24386 0.30115,0.64159 0.15385,0.9984 l -0.0606,0.14239 c -0.13747,0.33225 -0.51883,0.40263 -0.81507,0.40263 h -3.50586 c -12.29504,0 -22.29868,10.09202 -22.29868,22.49836 v 6.95933 c 0,5.9773 2.34378,11.56179 6.59762,15.72233 4.19,4.09999 9.76631,6.35702 15.70106,6.35702 h 3.50586 c 0.13748,0 0.59576,0.28807 0.82981,0.85437 l 0.0393,0.0966 c 0.15385,0.3699 0.0966,0.76762 -0.14731,1.01149 l -2.47963,2.478 c -8.69425,8.69425 -8.69425,22.84206 0,31.53632 l 4.92163,4.92161 c 8.69424,8.69426 22.84206,8.69426 31.53631,0 l 2.478,-2.47963 c 0.24387,-0.24387 0.6416,-0.30115 0.99839,-0.15384 l 0.1424,0.0606 c 0.33226,0.13585 0.40263,0.51884 0.40263,0.81508 v 3.50422 c 2e-5,12.29668 10.09204,22.30032 22.49838,22.30032 h 6.95934 c 12.40633,0 22.49834,-10.00364 22.49834,-22.30032 v -3.50422 c 0,-0.29624 0.0703,-0.67923 0.40264,-0.81508 l 0.1293,-0.054 c 0.3699,-0.15385 0.76762,-0.0966 1.01149,0.1473 l 2.478,2.47963 c 8.69426,8.69426 22.84206,8.69426 31.53632,0 l 4.92162,-4.92162 c 8.69426,-8.69425 8.69426,-22.84207 -0.002,-31.53631 z m -14.32784,9.37349 2.47799,2.478 c 2.15883,2.15883 2.15883,5.6745 0,7.83333 l -4.92162,4.92162 c -2.16048,2.16048 -5.67451,2.15884 -7.83334,0 l -2.478,-2.47798 c -5.0591,-5.05911 -12.6322,-6.54199 -19.30184,-3.77266 l -0.0884,0.036 c -6.5387,2.7006 -10.76471,9.10181 -10.76471,16.30829 v 3.50422 c 0,3.00338 -2.62693,5.54029 -5.73833,5.54029 H 251.791 c -3.10977,0 -5.73834,-2.53691 -5.73834,-5.54029 v -3.50422 c 0,-7.20648 -4.22601,-13.60769 -10.76471,-16.30828 l -0.0998,-0.0409 c -2.22594,-0.92474 -4.55499,-1.3732 -6.85786,-1.3732 -4.58282,0 -9.06415,1.78239 -12.43252,5.14912 l -2.478,2.47963 c -2.15882,2.16047 -5.67287,2.15883 -7.83334,0 l -4.92161,-4.92162 c -2.15883,-2.15883 -2.15883,-5.6745 0,-7.83334 l 2.47963,-2.47799 c 5.0591,-5.0591 6.54033,-12.63221 3.76445,-19.31657 l -0.0294,-0.0736 c -2.76443,-6.68926 -9.31621,-11.18369 -16.30828,-11.18369 h -3.50586 c -3.10486,0 -5.53866,-2.3356 -5.53866,-5.31934 v -6.95934 c 0,-3.1114 2.53692,-5.73833 5.53866,-5.73833 h 3.50586 c 7.20484,0 13.60605,-4.22601 16.31974,-10.79581 l 0.0278,-0.0687 c 2.76605,-6.65818 1.28319,-14.23129 -3.77591,-19.29039 l -2.478,-2.47799 c -1.04586,-1.04587 -1.62199,-2.43708 -1.62199,-3.91667 0,-1.4796 0.57613,-2.87081 1.62199,-3.91667 l 4.92161,-4.92162 c 1.04751,-1.04586 2.43708,-1.62199 3.91668,-1.62199 1.47959,0 2.87081,0.57613 3.91668,1.62199 l 2.47962,2.47799 c 5.0591,5.0591 12.63057,6.54198 19.30184,3.771 l 0.0867,-0.036 c 6.53871,-2.70061 10.76471,-9.10182 10.76471,-16.30666 v -3.50585 c 0,-3.00174 2.62694,-5.53866 5.73835,-5.53866 h 6.95933 c 3.1114,0 5.73834,2.53692 5.73834,5.53866 v 3.50585 c 0,7.20484 4.22601,13.60605 10.77289,16.30992 l 0.0917,0.0377 c 6.65817,2.76606 14.22964,1.28483 19.29038,-3.77591 l 2.47799,-2.47799 c 1.04587,-1.04587 2.43708,-1.622 3.91668,-1.622 1.47959,0 2.8708,0.57613 3.91666,1.622 l 4.92163,4.92161 c 1.04586,1.04586 1.62198,2.43707 1.62198,3.91667 0,1.4796 -0.57612,2.87081 -1.62198,3.91668 l -2.47964,2.47799 c -5.0591,5.0591 -6.54033,12.63221 -3.771,19.30184 l 0.036,0.0884 c 2.7628,6.68929 9.31622,11.18373 16.30829,11.18373 h 3.50586 c 3.10485,0 5.53866,2.3356 5.53866,5.31933 v 6.95934 c 0,3.10977 -2.53692,5.73834 -5.53866,5.73834 h -3.50586 c -7.20484,0 -13.60605,4.22601 -16.30336,10.75816 l -0.0442,0.10639 c -2.76606,6.65818 -1.28483,14.23128 3.77591,19.29038 z m 54.71718,35.62812 v 15.50302 c 0,18.48347 -15.03656,33.52002 -33.52002,33.52002 -4.62865,0 -8.38001,-3.75136 -8.38001,-8.38001 0,-4.62864 3.75136,-8.38 8.38001,-8.38 9.24091,0 16.76001,-7.5191 16.76001,-16.76001 V 283.2767 c 0,-4.62865 3.75136,-8.38 8.38001,-8.38 4.62864,0 8.38,3.75135 8.38,8.38 z m -67.45906,40.64303 c 0,4.62865 -3.75135,8.38001 -8.38,8.38001 H 181.10763 c -18.48348,0 -33.52003,-15.03655 -33.52003,-33.52002 V 283.2767 c 0,-4.62865 3.75136,-8.38 8.38001,-8.38 4.62864,0 8.38,3.75135 8.38,8.38 v 15.50302 c 0,9.24091 7.5191,16.76001 16.76002,16.76001 h 105.16908 c 4.62865,0 8.38,3.75136 8.38,8.38 z m -9.1067,-117.14169 c 3.2718,3.27181 3.2718,8.57806 0,11.8515 l -12.86954,12.86952 c -4.74975,4.74813 -11.06259,7.36361 -17.77805,7.36361 -6.71546,0 -13.02828,-2.61548 -17.77641,-7.36361 l -12.86953,-12.86952 c -3.27344,-3.27344 -3.27344,-8.57806 0,-11.8515 3.2718,-3.2718 8.57805,-3.2718 11.84985,0 l 10.82199,10.822 -0.0377,-38.22724 c -0.005,-4.627 3.74318,-8.38328 8.37182,-8.38819 h 0.008 c 4.62373,0 8.3751,3.74645 8.38001,8.37182 l 0.0376,37.4318 10.01019,-10.01019 c 3.2718,-3.2718 8.57805,-3.2718 11.85148,0 z m 0,0"
       id="path4713" />
  </g>
</svg>
