<?xml version="1.0" encoding="UTF-8" standalone="no"?>
<svg
   xmlns:dc="http://purl.org/dc/elements/1.1/"
   xmlns:cc="http://creativecommons.org/ns#"
   xmlns:rdf="http://www.w3.org/1999/02/22-rdf-syntax-ns#"
   xmlns:svg="http://www.w3.org/2000/svg"
   xmlns="http://www.w3.org/2000/svg"
   xmlns:sodipodi="http://sodipodi.sourceforge.net/DTD/sodipodi-0.dtd"
   xmlns:inkscape="http://www.inkscape.org/namespaces/inkscape"
   height="512px"
   viewBox="0 0 512.001 512"
   width="512px"
   version="1.1"
   id="svg4507"
   sodipodi:docname="7.svg"
   inkscape:version="0.92.4 (5da689c313, 2019-01-14)">
  <metadata
     id="metadata4513">
    <rdf:RDF>
      <cc:Work
         rdf:about="">
        <dc:format>image/svg+xml</dc:format>
        <dc:type
           rdf:resource="http://purl.org/dc/dcmitype/StillImage" />
        <dc:title />
      </cc:Work>
    </rdf:RDF>
  </metadata>
  <defs
     id="defs4511">
    <linearGradient
       gradientTransform="matrix(0.41900036,0,0,0.41900036,147.58761,117.77157)"
       id="a"
       gradientUnits="userSpaceOnUse"
       x1="0"
       x2="512"
       y1="256"
       y2="256">
      <stop
         offset="0"
         stop-color="#00f2fe"
         id="stop4700" />
      <stop
         offset=".0208"
         stop-color="#03effe"
         id="stop4702" />
      <stop
         offset=".2931"
         stop-color="#24d2fe"
         id="stop4704" />
      <stop
         offset=".5538"
         stop-color="#3cbdfe"
         id="stop4706" />
      <stop
         offset=".7956"
         stop-color="#4ab0fe"
         id="stop4708" />
      <stop
         offset="1"
         stop-color="#4facfe"
         id="stop4710" />
    </linearGradient>
  </defs>
  <sodipodi:namedview
     pagecolor="#ffffff"
     bordercolor="#666666"
     borderopacity="1"
     objecttolerance="10"
     gridtolerance="10"
     guidetolerance="10"
     inkscape:pageopacity="0"
     inkscape:pageshadow="2"
     inkscape:window-width="1920"
     inkscape:window-height="1017"
     id="namedview4509"
     showgrid="false"
     inkscape:zoom="0.65186406"
     inkscape:cx="105.85266"
     inkscape:cy="182.54184"
     inkscape:window-x="1358"
     inkscape:window-y="-8"
     inkscape:window-maximized="1"
     inkscape:current-layer="g4505" />
  <g
     id="g4505">
    <path
       d="m55.261719 28.761719c-12.125 0-21.988281 9.867187-21.988281 21.988281 0 12.125 9.863281 21.992188 21.988281 21.992188s21.992187-9.867188 21.992187-21.992188c0-12.121094-9.867187-21.988281-21.992187-21.988281zm0 28.992187c-3.859375 0-7.003907-3.140625-7.003907-7.003906 0-3.859375 3.144532-7 7.003907-7 3.863281 0 7.003906 3.140625 7.003906 7 0 3.863281-3.140625 7.003906-7.003906 7.003906zm0 0"
       data-original="#000000"
       fill="#000000"
       id="path4451"
       style="fill:#ec6f31;fill-opacity:1" />
    <path
       d="m111.25 28.761719c-12.125 0-21.992188 9.867187-21.992188 21.988281 0 12.125 9.867188 21.992188 21.992188 21.992188s21.988281-9.867188 21.988281-21.992188c0-12.121094-9.863281-21.988281-21.988281-21.988281zm0 28.992187c-3.863281 0-7.003906-3.140625-7.003906-7.003906 0-3.859375 3.140625-7 7.003906-7 3.859375 0 7.003906 3.140625 7.003906 7 0 3.863281-3.144531 7.003906-7.003906 7.003906zm0 0"
       data-original="#000000"
       fill="#000000"
       id="path4453"
       style="fill:#ec6f31;fill-opacity:1" />
    <path
       d="m167.234375 28.761719c-12.125 0-21.988281 9.867187-21.988281 21.988281 0 12.125 9.863281 21.992188 21.988281 21.992188s21.992187-9.867188 21.992187-21.992188c0-12.121094-9.867187-21.988281-21.992187-21.988281zm0 28.992187c-3.859375 0-7.003906-3.140625-7.003906-7.003906 0-3.859375 3.144531-7 7.003906-7 3.863281 0 7.003906 3.140625 7.003906 7 0 3.863281-3.140625 7.003906-7.003906 7.003906zm0 0"
       data-original="#000000"
       fill="#000000"
       id="path4455"
       style="fill:#ec6f31;fill-opacity:1" />
    <path
       d="m 503.9375,147.82422 c 4.14062,0 7.49609,-3.35547 7.49609,-7.4961 L 512,32.976562 C 512,14.792969 497.20703,0 479.02344,0 H 32.980469 C 14.796875,0 0,14.796875 0,32.980469 V 395.54687 c 0,16.48047 12.152344,30.17579 27.964844,32.59766 1.636718,0.25391 3.3125,0.38281 5.015625,0.38281 H 178.78516 v 26.875 h -22.625 c -15.08985,0 -27.3711,12.27735 -27.3711,27.36719 v 16.19141 c 0,6.88672 5.60156,12.48828 12.48828,12.48828 h 35.73438 c 4.13672,0 7.49219,-3.35547 7.49219,-7.4961 0,-4.13671 -3.35547,-7.49218 -7.49219,-7.49218 h -33.23438 v -13.69141 c 0,-6.82812 5.55469,-12.38281 12.38282,-12.38281 h 199.11328 c 6.82812,0 12.38281,5.55469 12.38281,12.38281 v 13.69141 h -144.125 c -4.13672,0 -7.49219,3.35547 -7.49219,7.49218 0,4.14063 3.35547,7.4961 7.49219,7.4961 h 146.62109 c 6.88672,0 12.48828,-5.60156 12.48828,-12.48828 v -16.19141 c 0,-15.08984 -12.27734,-27.36719 -27.37109,-27.36719 h -22.625 v -26.875 h 145.80859 c 1.70313,0 3.37891,-0.1289 5.01172,-0.38281 15.81641,-2.42187 27.96485,-16.11719 27.96485,-32.59766 V 186.78906 c 0,-4.14062 -3.35157,-7.49609 -7.49219,-7.49609 -4.13672,0 -7.49219,3.35547 -7.49219,7.49609 V 352.13672 L 15.539062,351.59766 V 101.92969 H 496.44531 v 38.39843 c 0,4.14063 3.35547,7.4961 7.49219,7.4961 z M 15.539062,101.92969 v 0 249.66797 0 z M 317.66016,455.40234 H 193.77344 v -26.875 H 317.66016 Z M 496.44531,367.125 v 28.42187 c 0,9.30079 -7.09375,16.97657 -16.15625,17.90235 -0.60547,0.0586 -1.21484,0.0898 -1.83594,0.0898 H 32.980469 c -0.621094,0 -1.234375,-0.0312 -1.835938,-0.0898 -9.0625,-0.92578 -16.15625,-8.60156 -16.15625,-17.90235 V 367.125 Z M 254.71875,86.941406 H 15.539062 V 32.976562 c 0,-9.917968 8.070313,-17.988281 17.992188,-17.988281 h 444.92187 c 9.92188,0 17.99219,8.070313 17.99219,17.992188 v 53.960937 z"
       data-original="#000000"
       id="path4457"
       inkscape:connector-curvature="0"
       style="fill:#ec6f31;fill-opacity:1"
       sodipodi:nodetypes="sccsssscsccssssssscsssscsssssssccscssssccccsscccccccccccscsscsccccsssscc" />
    <g
       id="g82"
       transform="translate(167.98014,34.516466)"
       style="fill:#ec6f31;fill-opacity:1;stroke:#ec6f31;stroke-opacity:1">
      <path
         style="fill:#ec6f31;stroke:#ec6f31;stroke-width:2.00000381;stroke-miterlimit:4;stroke-dasharray:none;stroke-opacity:1;fill-opacity:1"
         inkscape:connector-curvature="0"
         d="m 216.19058,260.52863 c -19.63647,0 -38.09699,-7.64694 -51.98144,-21.53139 -13.88445,-13.88445 -21.53139,-32.34497 -21.53139,-51.98143 0,-19.63646 7.64694,-38.09699 21.53139,-51.98144 13.88445,-13.88444 32.34497,-21.53139 51.98144,-21.53139 19.63646,0 38.09696,7.64695 51.98141,21.53139 13.88445,13.88445 21.52973,32.34498 21.52973,51.98144 0,19.63478 -7.64528,38.09698 -21.52973,51.98143 -13.88445,13.88445 -32.34495,21.53139 -51.98141,21.53139 z m 0,-138.42451 c -17.33836,0 -33.64019,6.75154 -45.90018,19.01153 -12.25997,12.25997 -19.01152,28.56182 -19.01152,45.90016 0,17.33833 6.75155,33.64018 19.01152,45.90015 12.25999,12.25998 28.56182,19.01154 45.90018,19.01154 17.33833,0 33.64018,-6.75156 45.89846,-19.01154 12.26167,-12.26165 19.01321,-28.56182 19.01321,-45.90015 0,-17.33834 -6.75154,-33.64019 -19.01321,-45.90016 -12.25828,-12.25999 -28.56013,-19.01153 -45.89846,-19.01153 z m 0,0"
         data-original="#000000"
         class=""
         id="path5367" />
      <path
         sodipodi:nodetypes="sccccccs"
         style="fill:#ec6f31;stroke:#ec6f31;stroke-width:2.00000381;stroke-miterlimit:4;stroke-dasharray:none;stroke-opacity:1;fill-opacity:1"
         inkscape:connector-curvature="0"
         d="m 261.46005,238.42793 c -1.05324,0 -2.10487,-0.40138 -2.90603,-1.20415 l -93.74985,-95.91775 c -1.60554,-1.60554 -1.60554,-4.20813 0,-5.81206 1.60554,-1.60554 4.20652,-1.60554 5.81206,0 l 93.74985,95.91774 c 1.60554,1.60554 1.60554,4.20813 0,5.81207 -0.80277,0.80277 -1.8544,1.20415 -2.90603,1.20415 z"
         data-original="#000000"
         class=""
         id="path5371" />
      <path
         style="fill:#ec6f31;stroke-width:0.41101891;fill-opacity:1;stroke:#ec6f31;stroke-opacity:1"
         inkscape:connector-curvature="0"
         d="m 254.63891,189.08942 c -0.004,0 -0.008,0 -0.0111,0 l -13.10127,0.0369 c -0.2601,-1.8849 -0.69524,-3.70719 -1.28448,-5.4476 l 9.99939,-5.08636 c 1.37758,-0.70162 2.24618,-2.11771 2.24618,-3.66385 v -13.62142 c 0,-2.27024 -1.83997,-4.11019 -4.11023,-4.11019 -2.27022,0 -4.11019,1.83995 -4.11019,4.11019 v 11.10072 l -7.75967,3.94803 c -0.81398,-1.14636 -1.70827,-2.22047 -2.67482,-3.20948 1.29084,-2.54639 1.97963,-5.37215 1.97963,-8.23804 0,-5.5038 -2.47093,-10.45048 -6.38206,-13.84139 l 3.76502,-8.81282 c 0.89109,-2.0872 -0.0771,-4.50194 -2.16587,-5.39302 -2.08563,-0.89268 -4.50201,0.0771 -5.39306,2.16428 l -3.46961,8.11762 c -1.67137,-0.47364 -3.43427,-0.73373 -5.25977,-0.73373 -1.82554,0 -3.59005,0.26009 -5.26141,0.73373 l -3.46802,-8.11762 c -0.89105,-2.08721 -3.30582,-3.05696 -5.39302,-2.16588 -2.08884,0.89268 -3.05699,3.30742 -2.1659,5.39462 l 3.76501,8.81282 C 200.47253,154.45784 198,159.40452 198,164.90832 c 0,2.86589 0.69039,5.69165 1.98124,8.23804 -0.96655,0.98901 -1.86085,2.06312 -2.67643,3.20948 l -7.75807,-3.94803 v -11.10072 c 0,-2.27024 -1.84157,-4.11019 -4.11019,-4.11019 -2.27026,0 -4.11023,1.83995 -4.11023,4.11019 v 13.62144 c 0,1.54774 0.86701,2.96223 2.24618,3.66385 l 9.99939,5.08636 c -0.58924,1.74041 -1.02598,3.5627 -1.28447,5.4476 l -13.10131,-0.0369 c -0.004,0 -0.008,0 -0.0111,0 -2.26541,0 -4.10378,1.83353 -4.11019,4.09895 -0.007,2.27024 1.8287,4.115 4.09897,4.12142 l 13.12219,0.0369 c 0.27291,1.9989 0.74657,3.92555 1.39039,5.76069 l -9.96244,5.0687 c -1.37917,0.70162 -2.24618,2.1161 -2.24618,3.66385 v 13.62142 c 0,2.27024 1.83997,4.11019 4.10863,4.11019 2.27022,0 4.11019,-1.83995 4.11019,-4.11019 v -11.10233 l 7.79978,-3.96729 c 4.56778,6.26964 11.57442,10.29313 19.42077,10.29313 7.84631,0 14.85295,-4.02349 19.42077,-10.29313 l 7.79818,3.96729 v 11.10233 c 0,2.26863 1.84157,4.10859 4.11019,4.10859 2.27026,0 4.11023,-1.83996 4.11023,-4.10859 v -13.62303 c 0,-1.54614 -0.86701,-2.96223 -2.24618,-3.66224 l -9.96244,-5.0687 c 0.64382,-1.83514 1.11744,-3.76179 1.39039,-5.76069 l 13.1238,-0.0369 c 2.26866,-0.006 4.10377,-1.8528 4.09736,-4.12143 -0.007,-2.26702 -1.84477,-4.09894 -4.11023,-4.09895 z m -27.04549,-24.18107 c 0,1.1287 -0.18624,2.22689 -0.54752,3.26567 -1.26356,-0.61974 -2.57208,-1.11745 -3.91109,-1.49636 -0.0255,-0.008 -0.0514,-0.0128 -0.0771,-0.0193 -0.3693,-0.10436 -0.74181,-0.20069 -1.11587,-0.28579 -0.0675,-0.0145 -0.13646,-0.0257 -0.20391,-0.0417 -0.33716,-0.0722 -0.67592,-0.14289 -1.01633,-0.2007 -0.12523,-0.0209 -0.25368,-0.0353 -0.37892,-0.0546 -0.28898,-0.0434 -0.57797,-0.0883 -0.86856,-0.12203 -0.21196,-0.0241 -0.42549,-0.0369 -0.63905,-0.0546 -0.21032,-0.0177 -0.42064,-0.0418 -0.63256,-0.053 -0.4303,-0.0241 -0.8622,-0.0369 -1.2957,-0.0369 -0.4351,0 -0.867,0.0128 -1.29565,0.0369 -0.21517,0.0112 -0.42709,0.0353 -0.64222,0.053 -0.21036,0.0193 -0.42068,0.0305 -0.62939,0.0546 -0.29384,0.0337 -0.58603,0.0787 -0.87823,0.12363 -0.12203,0.0193 -0.24727,0.0321 -0.3693,0.053 -0.34357,0.0578 -0.68558,0.12845 -1.02594,0.2023 -0.0642,0.0145 -0.13005,0.0257 -0.19429,0.0402 -0.37727,0.0851 -0.75299,0.18304 -1.1271,0.28739 -0.021,0.006 -0.0433,0.0112 -0.0658,0.0177 -1.33902,0.37891 -2.64758,0.87502 -3.91274,1.49636 -0.36124,-1.03878 -0.54751,-2.13697 -0.54751,-3.26567 0,-5.66757 4.7942,-10.27868 10.68657,-10.27868 5.89397,0 10.68818,4.61111 10.68818,10.27868 z m -27.36667,28.33943 c 0,-6.9231 3.19506,-13.00168 7.97319,-16.38456 0.0271,-0.0193 0.053,-0.0402 0.0803,-0.0594 0.21192,-0.14771 0.42549,-0.289 0.64222,-0.42547 0.045,-0.0289 0.0899,-0.0546 0.1349,-0.0835 0.17497,-0.10757 0.35319,-0.21354 0.53301,-0.31469 0.0546,-0.0305 0.11081,-0.0626 0.16699,-0.0931 0.20551,-0.11239 0.41423,-0.22157 0.62455,-0.32593 0.016,-0.008 0.0321,-0.0161 0.0482,-0.0241 0.22799,-0.11078 0.45759,-0.21515 0.69039,-0.31469 0.0578,-0.0241 0.11562,-0.0466 0.1718,-0.0706 0.17822,-0.0739 0.35964,-0.1445 0.54107,-0.21194 0.0658,-0.0241 0.13165,-0.0482 0.19749,-0.0722 0.2328,-0.0819 0.46721,-0.15894 0.70321,-0.22959 0.021,-0.006 0.0403,-0.0112 0.061,-0.0161 0,-0.002 0,-0.002 0.004,-0.002 v 37.25341 c -7.21692,-2.1145 -12.57147,-9.66216 -12.57147,-18.62591 z m 20.79032,18.6259 v -37.2534 c 0.0226,0.006 0.0434,0.0112 0.0642,0.0193 0.23445,0.069 0.46725,0.14611 0.69685,0.22799 0.0706,0.0241 0.13966,0.0498 0.21031,0.0771 0.17502,0.0642 0.34999,0.13326 0.525,0.2039 0.061,0.0257 0.12363,0.0498 0.18463,0.0771 0.22963,0.0979 0.45759,0.20069 0.68237,0.30987 0.0226,0.0112 0.045,0.0241 0.069,0.0353 0.20231,0.0995 0.40301,0.20551 0.60046,0.31308 0.061,0.0337 0.12043,0.0674 0.18142,0.10115 0.17341,0.0979 0.34522,0.20069 0.51538,0.30506 0.0498,0.0305 0.0995,0.0594 0.14772,0.0899 0.21517,0.13647 0.42709,0.27615 0.63581,0.42225 0.0304,0.0225 0.061,0.045 0.0915,0.0674 4.77329,3.38448 7.96353,9.45985 7.96353,16.37814 0,8.96374 -5.3513,16.5114 -12.56826,18.6259 z m 0,0"
         data-original="#000000"
         class=""
         id="path5373" />
    </g>
    <path
       d="m 84.161698,131.14617 h 37.964752 c 4.13671,0 7.49217,-3.35156 7.49217,-7.49219 0,-4.13672 -3.35546,-7.49219 -7.49217,-7.49219 H 84.161698 c -4.14062,0 -7.49608,3.35547 -7.49608,7.49219 0,4.14063 3.35546,7.49219 7.49608,7.49219 z m 0,0"
       data-original="#000000"
       id="path4459"
       inkscape:connector-curvature="0"
       style="fill:#ec6f31;stroke-width:1;fill-opacity:1" />
    <path
       d="m 148.10298,131.14617 h 17.98437 c 4.13672,0 7.49219,-3.35156 7.49219,-7.49219 0,-4.13672 -3.35547,-7.49219 -7.49219,-7.49219 h -17.98437 c -4.14063,0 -7.49219,3.35547 -7.49219,7.49219 0,4.14063 3.35156,7.49219 7.49219,7.49219 z m 0,0"
       data-original="#000000"
       id="path4461"
       inkscape:connector-curvature="0"
       style="fill:#ec6f31;stroke-width:1;fill-opacity:1" />
    <path
       d="m 141.10689,142.61101 h -24.97653 c -4.13671,0 -7.49217,3.35547 -7.49217,7.4961 0,4.13671 3.35546,7.49218 7.49217,7.49218 h 24.97653 c 4.14062,0 7.49609,-3.35547 7.49609,-7.49218 0,-4.14063 -3.35547,-7.4961 -7.49609,-7.4961 z m 0,0"
       data-original="#000000"
       id="path4463"
       inkscape:connector-curvature="0"
       style="fill:#ec6f31;stroke-width:1;fill-opacity:1" />
    <path
       d="m 259.00142,170.00945 h -24.97657 c -4.13671,0 -7.49218,3.35547 -7.49218,7.49219 0,4.13672 3.35547,7.49218 7.49218,7.49218 h 24.97657 c 4.14062,0 7.49218,-3.35546 7.49218,-7.49218 0,-4.13672 -3.35156,-7.49219 -7.49218,-7.49219 z m 0,0"
       data-original="#000000"
       id="path4465"
       inkscape:connector-curvature="0"
       style="fill:#ec6f31;stroke-width:1;fill-opacity:1" />
    <path
       d="m 156.59517,150.10711 c 0,4.13671 3.35547,7.49218 7.49218,7.49218 h 59.94532 c 4.14062,0 7.49609,-3.35547 7.49609,-7.49218 0,-4.14063 -3.35547,-7.4961 -7.49609,-7.4961 h -59.94532 c -4.13671,0 -7.49218,3.35547 -7.49218,7.4961 z m 0,0"
       data-original="#000000"
       id="path4467"
       inkscape:connector-curvature="0"
       style="fill:#ec6f31;stroke-width:1;fill-opacity:1" />
    <path
       d="m 132.61471,177.50164 c 0,4.13672 3.35546,7.49218 7.49608,7.49218 h 12.98828 c 4.13672,0 7.49219,-3.35546 7.49219,-7.49218 0,-4.13672 -3.35547,-7.49219 -7.49219,-7.49219 h -12.98828 c -4.14062,0 -7.49608,3.35547 -7.49608,7.49219 z m 0,0"
       data-original="#000000"
       id="path4469"
       inkscape:connector-curvature="0"
       style="fill:#ec6f31;stroke-width:1;fill-opacity:1" />
    <path
       d="m 211.04439,184.99382 c 4.14062,0 7.49609,-3.35546 7.49609,-7.49218 0,-4.13672 -3.35547,-7.49219 -7.49609,-7.49219 h -35.96485 c -4.14062,0 -7.49609,3.35547 -7.49609,7.49219 0,4.13672 3.35547,7.49218 7.49609,7.49218 z m 0,0"
       data-original="#000000"
       id="path4471"
       inkscape:connector-curvature="0"
       style="fill:#ec6f31;stroke-width:1;fill-opacity:1" />
    <path
       d="m 129.61862,274.62273 c 0,-4.14062 -3.35546,-7.49219 -7.49217,-7.49219 H 84.161698 c -4.14062,0 -7.49608,3.35157 -7.49608,7.49219 0,4.13672 3.35546,7.49219 7.49608,7.49219 h 37.964752 c 4.13671,0 7.49217,-3.35547 7.49217,-7.49219 z m 0,0"
       data-original="#000000"
       id="path4473"
       inkscape:connector-curvature="0"
       style="fill:#ec6f31;stroke-width:1;fill-opacity:1" />
    <path
       d="m 148.10298,267.13054 c -4.14063,0 -7.49219,3.35157 -7.49219,7.49219 0,4.13672 3.35156,7.49219 7.49219,7.49219 h 17.98437 c 4.13672,0 7.49219,-3.35547 7.49219,-7.49219 0,-4.14062 -3.35547,-7.49219 -7.49219,-7.49219 z m 0,0"
       data-original="#000000"
       id="path4475"
       inkscape:connector-curvature="0"
       style="fill:#ec6f31;stroke-width:1;fill-opacity:1" />
    <path
       d="m 148.60298,301.07195 c 0,-4.13672 -3.35547,-7.49219 -7.49609,-7.49219 h -24.97653 c -4.13671,0 -7.49217,3.35547 -7.49217,7.49219 0,4.14062 3.35546,7.49609 7.49217,7.49609 h 24.97653 c 4.14062,0 7.49609,-3.35547 7.49609,-7.49609 z m 0,0"
       data-original="#000000"
       id="path4477"
       inkscape:connector-curvature="0"
       style="fill:#ec6f31;stroke-width:1;fill-opacity:1" />
    <path
       d="m 153.09907,320.9782 h -12.98828 c -4.14062,0 -7.49608,3.35156 -7.49608,7.49219 0,4.13672 3.35546,7.49218 7.49608,7.49218 h 12.98828 c 4.13672,0 7.49219,-3.35546 7.49219,-7.49218 0,-4.14063 -3.35547,-7.49219 -7.49219,-7.49219 z m 0,0"
       data-original="#000000"
       id="path4479"
       inkscape:connector-curvature="0"
       style="fill:#ec6f31;stroke-width:1;fill-opacity:1" />
    <path
       d="m 259.00142,320.9782 h -24.97657 c -4.13671,0 -7.49218,3.35156 -7.49218,7.49219 0,4.13672 3.35547,7.49218 7.49218,7.49218 h 24.97657 c 4.14062,0 7.49218,-3.35546 7.49218,-7.49218 0,-4.14063 -3.35156,-7.49219 -7.49218,-7.49219 z m 0,0"
       data-original="#000000"
       id="path4481"
       inkscape:connector-curvature="0"
       style="fill:#ec6f31;stroke-width:1;fill-opacity:1" />
    <path
       d="m 231.52876,301.07195 c 0,-4.13672 -3.35547,-7.49219 -7.49609,-7.49219 h -59.94532 c -4.13671,0 -7.49218,3.35547 -7.49218,7.49219 0,4.14062 3.35547,7.49609 7.49218,7.49609 h 59.94532 c 4.14062,0 7.49609,-3.35547 7.49609,-7.49609 z m 0,0"
       data-original="#000000"
       id="path4483"
       inkscape:connector-curvature="0"
       style="fill:#ec6f31;stroke-width:1;fill-opacity:1" />
    <path
       d="m 211.04439,320.9782 h -35.96485 c -4.14062,0 -7.49609,3.35156 -7.49609,7.49219 0,4.13672 3.35547,7.49218 7.49609,7.49218 h 35.96485 c 4.14062,0 7.49609,-3.35546 7.49609,-7.49218 0,-4.14063 -3.35547,-7.49219 -7.49609,-7.49219 z m 0,0"
       data-original="#000000"
       id="path4485"
       inkscape:connector-curvature="0"
       style="fill:#ec6f31;stroke-width:1;fill-opacity:1" />
    <path
       d="m 84.161698,219.32976 h 20.980422 c 4.13669,0 7.49216,-3.35547 7.49216,-7.49219 0,-4.14062 -3.35547,-7.49218 -7.49216,-7.49218 H 84.161698 c -4.14062,0 -7.49608,3.35156 -7.49608,7.49218 0,4.13672 3.35546,7.49219 7.49608,7.49219 z m 0,0"
       data-original="#000000"
       id="path4487"
       inkscape:connector-curvature="0"
       style="fill:#ec6f31;stroke-width:1;fill-opacity:1" />
    <path
       d="m 210.54439,211.83757 c 0,-4.14062 -3.35157,-7.49218 -7.49219,-7.49218 h -76.92967 c -4.13671,0 -7.49217,3.35156 -7.49217,7.49218 0,4.13672 3.35546,7.49219 7.49217,7.49219 h 76.92967 c 4.14062,0 7.49219,-3.35547 7.49219,-7.49219 z m 0,0"
       data-original="#000000"
       id="path4489"
       inkscape:connector-curvature="0"
       style="fill:#ec6f31;stroke-width:1;fill-opacity:1" />
    <path
       d="m 196.56001,238.28679 c 0,-4.13672 -3.35547,-7.49218 -7.49609,-7.49218 h -72.93356 c -4.13671,0 -7.49217,3.35546 -7.49217,7.49218 0,4.14063 3.35546,7.4961 7.49217,7.4961 h 72.93356 c 4.14062,0 7.49609,-3.35547 7.49609,-7.4961 z m 0,0"
       data-original="#000000"
       id="path4491"
       inkscape:connector-curvature="0"
       style="fill:#ec6f31;stroke-width:1;fill-opacity:1" />
    <path
       d="m 210.04829,245.78289 h 13.98438 c 4.14062,0 7.49609,-3.35547 7.49609,-7.4961 0,-4.13672 -3.35547,-7.49218 -7.49609,-7.49218 h -13.98438 c -4.14062,0 -7.49609,3.35546 -7.49609,7.49218 0,4.14063 3.35547,7.4961 7.49609,7.4961 z m 0,0"
       data-original="#000000"
       id="path4493"
       inkscape:connector-curvature="0"
       style="fill:#ec6f31;stroke-width:1;fill-opacity:1" />
  </g>
</svg>
