<?xml version="1.0" encoding="UTF-8" standalone="no"?>
<svg
   xmlns:dc="http://purl.org/dc/elements/1.1/"
   xmlns:cc="http://creativecommons.org/ns#"
   xmlns:rdf="http://www.w3.org/1999/02/22-rdf-syntax-ns#"
   xmlns:svg="http://www.w3.org/2000/svg"
   xmlns="http://www.w3.org/2000/svg"
   xmlns:sodipodi="http://sodipodi.sourceforge.net/DTD/sodipodi-0.dtd"
   xmlns:inkscape="http://www.inkscape.org/namespaces/inkscape"
   id="Layer_1"
   data-name="Layer 1"
   viewBox="0 0 512 512"
   width="512px"
   height="512px"
   class=""
   version="1.1"
   sodipodi:docname="9.svg"
   inkscape:version="0.92.4 (5da689c313, 2019-01-14)">
  <metadata
     id="metadata2451">
    <rdf:RDF>
      <cc:Work
         rdf:about="">
        <dc:format>image/svg+xml</dc:format>
        <dc:type
           rdf:resource="http://purl.org/dc/dcmitype/StillImage" />
        <dc:title />
      </cc:Work>
    </rdf:RDF>
  </metadata>
  <defs
     id="defs2449" />
  <sodipodi:namedview
     pagecolor="#ffffff"
     bordercolor="#666666"
     borderopacity="1"
     objecttolerance="10"
     gridtolerance="10"
     guidetolerance="10"
     inkscape:pageopacity="0"
     inkscape:pageshadow="2"
     inkscape:window-width="1920"
     inkscape:window-height="1017"
     id="namedview2447"
     showgrid="false"
     inkscape:zoom="0.4609375"
     inkscape:cx="-710.27705"
     inkscape:cy="383.79502"
     inkscape:window-x="1358"
     inkscape:window-y="-8"
     inkscape:window-maximized="1"
     inkscape:current-layer="Layer_1" />
  <g
     id="g2444"
     style="fill:#ec6f31;fill-opacity:1">
    <title
       class=""
       id="title2440">a2</title>
    <path
       d="M423.731,236.19l-.2.133a5.435,5.435,0,0,0-1.491-1.208L367,207.258V163h20.067a6.062,6.062,0,0,0,4.883-9.565L348.1,92.03a6,6,0,0,0-9.765-.01l-43.851,61.39a6.075,6.075,0,0,0,4.882,9.59H320v20.48l-41-20.514V95h20.364a6.193,6.193,0,0,0,4.883-9.726L260.4,23.842a5.993,5.993,0,0,0-9.765-.029L206.779,85.2a6.28,6.28,0,0,0-.453,6.389A6.15,6.15,0,0,0,211.661,95H232v67.966l-31.912,16.109L172.7,140.74a6.006,6.006,0,0,0-9.77,0l-43.852,61.392a6.34,6.34,0,0,0-.453,6.423A6.18,6.18,0,0,0,123.958,212h11.675L89.109,235.305a5.692,5.692,0,0,0-1.65,1.154l-.2-.174-46.3,71.561a5.972,5.972,0,0,0-.7,5,5.765,5.765,0,0,0,3.237,3.758L86,334.751v57.356a6.148,6.148,0,0,0,3.189,5.219l163.288,92.6a6.134,6.134,0,0,0,3,.781,6.067,6.067,0,0,0,2.98-.781l163.358-92.6A6.142,6.142,0,0,0,425,392.107V335.165L468.487,316.6a5.9,5.9,0,0,0,3.327-3.792,6.013,6.013,0,0,0-.772-5.036Zm-18.395,3.872L367,256.712V220.7ZM311.023,151l32.193-45.069L375.408,151H360.756A5.709,5.709,0,0,0,355,156.9V261.924l-23,10.024V156.9a6.2,6.2,0,0,0-6.325-5.9ZM320,196.924V277.16L279,294.8V176.409Zm-103.457,5.3L207.145,189,232,176.409V294.8L191,277.16V212h20.661a6.231,6.231,0,0,0,4.882-9.773ZM135.617,200l32.193-45.069L200,200H185.351c-3.314,0-6.351,2.306-6.351,5.62v66.328l-23-10.024v-56.3a5.461,5.461,0,0,0-5.731-5.62ZM144,220.7v36.01l-38.336-16.65Zm-89.089,87.65,39.067-60.4L246.287,314.1,206.98,373.062ZM250,474.407,98,388.613V339.857l108.712,46.2a6.354,6.354,0,0,0,2.422.48,6.5,6.5,0,0,0,5.276-2.673L250,330.9Zm5.5-169.38L244,300.015V88.682A5.761,5.761,0,0,0,237.972,83H223.32l32.193-45.069L287.705,83H273.053A5.783,5.783,0,0,0,267,88.682V300.015ZM413,388.613,262,474.407V329.435l36.04,54.425a5.791,5.791,0,0,0,4.873,2.673,6.359,6.359,0,0,0,2.423-.48L413,340.272ZM305.02,373.062l-39.526-59.287L417.1,247.929l39.922,60.45Z"
       data-original="#000000"
       class=""
       fill="#000000"
       id="path2442"
       style="fill:#ec6f31;fill-opacity:1" />
  </g>
  <path
     d="m 25.96825,175.16481 h 90.73127 c 8.34656,0 15.12129,-6.77473 15.12129,-15.12129 V 69.312249 c 0,-8.34656 -6.77473,-15.12127 -15.12129,-15.12127 H 25.96825 c -8.346566,0 -15.121275,6.77471 -15.121275,15.12127 v 90.731271 c 0,8.34656 6.774709,15.12129 15.121275,15.12129 z M 21.787731,65.129959 h 99.326229 l -0.23213,99.094081 H 21.787731 Z"
     data-original="#000000"
     id="path1335"
     inkscape:connector-curvature="0"
     style="fill:#ec6f31;stroke-width:1.77209485;fill-opacity:1"
     sodipodi:nodetypes="sssssssssccccc" />
  <path
     d="m 401.81348,125.30779 h 90.73127 c 8.34656,0 15.12129,-6.77473 15.12129,-15.12129 V 19.455233 c 0,-8.34656 -6.77473,-15.1212703 -15.12129,-15.1212703 h -90.73127 c -8.34656,0 -15.12127,6.7747103 -15.12127,15.1212703 V 110.1865 c 0,8.34656 6.77471,15.12129 15.12127,15.12129 z M 397.63297,15.272943 h 99.32622 l -0.23213,99.094077 h -99.09409 z"
     data-original="#000000"
     id="path1335-7"
     inkscape:connector-curvature="0"
     style="fill:#ec6f31;stroke-width:1.77209485;fill-opacity:1"
     sodipodi:nodetypes="sssssssssccccc" />
  <flowRoot
     xml:space="preserve"
     id="flowRoot4072"
     style="font-style:normal;font-weight:normal;font-size:40px;line-height:1.25;font-family:sans-serif;text-align:center;letter-spacing:0px;word-spacing:0px;text-anchor:middle;fill:#ec6f31;fill-opacity:1;stroke:none;"
     transform="translate(-6.9032798,5.2329689)"><flowRegion
       id="flowRegion4074"
       style="text-align:center;text-anchor:middle;fill:#ec6f31;fill-opacity:1;"><rect
         id="rect4076"
         width="83.606392"
         height="62.129524"
         x="36.817493"
         y="86.297745"
         style="text-align:center;text-anchor:middle;fill:#ec6f31;fill-opacity:1;" /></flowRegion><flowPara
       id="flowPara4078"
       style="font-style:normal;font-variant:normal;font-weight:normal;font-stretch:normal;font-family:'Nightclub BTN';-inkscape-font-specification:'Nightclub BTN';fill:#ec6f31;fill-opacity:1;">V1.3</flowPara></flowRoot>  <flowRoot
     xml:space="preserve"
     id="flowRoot4072-0"
     style="font-style:normal;font-weight:normal;font-size:40px;line-height:1.25;font-family:sans-serif;text-align:center;letter-spacing:0px;word-spacing:0px;text-anchor:middle;fill:#ec6f31;fill-opacity:1;stroke:none;"
     transform="translate(363.96034,-45.030616)"><flowRegion
       id="flowRegion4074-3"
       style="text-align:center;text-anchor:middle;fill:#ec6f31;fill-opacity:1;"><rect
         id="rect4076-4"
         width="96.716255"
         height="65.429581"
         x="36.817493"
         y="86.297745"
         style="text-align:center;text-anchor:middle;fill:#ec6f31;fill-opacity:1;" /></flowRegion><flowPara
       id="flowPara4078-7"
       style="font-style:normal;font-variant:normal;font-weight:normal;font-stretch:normal;font-family:'Nightclub BTN';-inkscape-font-specification:'Nightclub BTN';fill:#ec6f31;fill-opacity:1;">V2.0</flowPara></flowRoot></svg>
